<svg xmlns="http://www.w3.org/2000/svg" viewBox="0 0 160 160" role="img" aria-labelledby="title desc">
  <title id="title">Learner owl avatar</title>
  <desc id="desc">A simple learner owl avatar badge.</desc>
  <rect width="160" height="160" rx="30" fill="#f0fdf4"/>
  <circle cx="80" cy="84" r="56" fill="#bbf7d0"/>
  <path d="M48 59c0-20 15-34 32-34s32 14 32 34v35c0 22-14 38-32 38S48 116 48 94V59z" fill="#0f766e"/>
  <path d="M50 42l18 12-20 9 2-21zm60 0l-18 12 20 9-2-21z" fill="#115e59"/>
  <circle cx="65" cy="72" r="16" fill="#ecfeff"/>
  <circle cx="95" cy="72" r="16" fill="#ecfeff"/>
  <circle cx="65" cy="72" r="7" fill="#111827"/>
  <circle cx="95" cy="72" r="7" fill="#111827"/>
  <path d="M80 81l10 13H70l10-13z" fill="#f59e0b"/>
  <path d="M61 106c11 10 27 10 38 0" fill="none" stroke="#ecfeff" stroke-width="7" stroke-linecap="round"/>
</svg>
